<?xml version="1.0" encoding="utf-8"?>
<!-- Generator: Adobe Illustrator 26.4.1, SVG Export Plug-In . SVG Version: 6.00 Build 0)  -->
<svg version="1.1" id="Ebene_1" xmlns="http://www.w3.org/2000/svg" xmlns:xlink="http://www.w3.org/1999/xlink" x="0px" y="0px"
	 viewBox="0 0 48 48" style="enable-background:new 0 0 48 48;" xml:space="preserve">
<path d="M12.4,27.5h24v-3h-24L12.4,27.5z M12.4,21h24v-3h-24L12.4,21z M12.4,14.5h24v-3h-24L12.4,14.5z M44,44l-8-8H7
	c-0.8,0-1.5-0.3-2.1-0.9C4.3,34.5,4,33.8,4,33V7c0-0.8,0.3-1.5,0.9-2.1S6.2,4,7,4h34c0.8,0,1.5,0.3,2.1,0.9C43.7,5.5,44,6.2,44,7V44
	z"/>
</svg>
