<?xml version="1.0" encoding="utf-8"?>
<!-- Generator: Adobe Illustrator 26.5.0, SVG Export Plug-In . SVG Version: 6.00 Build 0)  -->
<svg version="1.1" id="Ebene_1" xmlns="http://www.w3.org/2000/svg" xmlns:xlink="http://www.w3.org/1999/xlink" x="0px" y="0px"
	 viewBox="0 0 1800 300" style="enable-background:new 0 0 1800 300;" xml:space="preserve">
<style type="text/css">
	.st0{fill:url(#SVGID_1_);}
	.st1{fill:none;stroke:#9582C9;stroke-width:4;stroke-miterlimit:10;}
</style>
<linearGradient id="SVGID_1_" gradientUnits="userSpaceOnUse" x1="900" y1="-29.0851" x2="900" y2="301.8085">
	<stop  offset="0" style="stop-color:#9582C9"/>
	<stop  offset="1" style="stop-color:#000000;stop-opacity:0"/>
</linearGradient>
<path class="st0" d="M1800,81.3V300H0V81.3c14.4-9.8,34.8-20.2,49.9-13.9c26,10.7,33.7,64.3,114.9,55.1
	c81.2-9.2,232.8-71.3,298.7-28c65.9,43.3,234.4,172.6,343.2,29.1C915.5-19.9,932.3,7.7,1012,32.2s99.6,44.4,199.2,30.6
	c99.6-13.8,159.3-32.2,286.5,53.6c127.1,85.8,139.4,35.2,212.9-3.1C1750.8,92.4,1780.9,84.3,1800,81.3z"/>
<path class="st1" d="M0,81.3c14.4-9.8,34.8-20.2,49.9-13.9c26,10.7,33.7,64.3,114.9,55.1c81.2-9.2,232.8-71.3,298.7-28
	c65.9,43.3,234.4,172.6,343.2,29C915.5-19.9,932.3,7.7,1012,32.2s99.6,44.4,199.2,30.6c99.6-13.8,159.3-32.2,286.5,53.6
	c127.1,85.8,139.4,35.2,212.9-3.1c40.3-21,70.4-29.1,89.5-32.1"/>
</svg>
